{
  "accessors": [
    {
      "bufferView": 2,
      "componentType": 5126,
      "count": 55148,
      "max": [
        0.8760735392570496,
        1.0009673833847046,
        3.001112461090088
      ],
      "min": [
        -0.8760733604431152,
        -1.0008498430252075,
        -2.064933141809888e-06
      ],
      "type": "VEC3"
    },
    {
      "bufferView": 2,
      "byteOffset": 661776,
      "componentType": 5126,
      "count": 55148,
      "max": [
        0.9999988675117493,
        0.999998152256012,
        1.0
      ],
      "min": [
        -0.9999998807907104,
        -1.0,
        -0.9999999403953552
      ],
      "type": "VEC3"
    },
    {
      "bufferView": 1,
      "componentType": 5126,
      "count": 55148,
      "max": [
        2.001817226409912,
        1.8247051239013672
      ],
      "min": [
        0.0,
        0.0
      ],
      "type": "VEC2"
    },
    {
      "bufferView": 0,
      "componentType": 5125,
      "count": 57381,
      "type": "SCALAR"
    },
    {
      "bufferView": 2,
      "byteOffset": 1323552,
      "componentType": 5126,
      "count": 55148,
      "max": [
        0.8760735392570496,
        1.0009673833847046,
        3.001112461090088
      ],
      "min": [
        -0.8760733604431152,
        -1.0008498430252075,
        -2.064933141809888e-06
      ],
      "type": "VEC3"
    },
    {
      "bufferView": 2,
      "byteOffset": 1985328,
      "componentType": 5126,
      "count": 55148,
      "max": [
        0.9999988675117493,
        0.999998152256012,
        1.0
      ],
      "min": [
        -0.9999998807907104,
        -1.0,
        -0.9999999403953552
      ],
      "type": "VEC3"
    },
    {
      "bufferView": 1,
      "byteOffset": 441184,
      "componentType": 5126,
      "count": 55148,
      "max": [
        2.001817226409912,
        1.8247051239013672
      ],
      "min": [
        0.0,
        0.0
      ],
      "type": "VEC2"
    },
    {
      "bufferView": 0,
      "byteOffset": 229524,
      "componentType": 5125,
      "count": 57381,
      "type": "SCALAR"
    }
  ],
  "asset": {
    "extras": {
      "author": "allenbranch (https://sketchfab.com/allenbranch)",
      "license": "CC-BY-4.0 (http://creativecommons.org/licenses/by/4.0/)",
      "source": "https://sketchfab.com/3d-models/merax-dining-chair-leisure-padded-chair-b73996eb2e304391a490636445f1899a",
      "title": "Merax Dining Chair Leisure Padded Chair"
    },
    "generator": "Sketchfab-12.64.0",
    "version": "2.0"
  },
  "bufferViews": [
    {
      "buffer": 0,
      "byteLength": 459048,
      "name": "floatBufferViews",
      "target": 34963
    },
    {
      "buffer": 0,
      "byteLength": 882368,
      "byteOffset": 459048,
      "byteStride": 8,
      "name": "floatBufferViews",
      "target": 34962
    },
    {
      "buffer": 0,
      "byteLength": 2647104,
      "byteOffset": 1341416,
      "byteStride": 12,
      "name": "floatBufferViews",
      "target": 34962
    }
  ],
  "buffers": [
    {
      "byteLength": 3988520,
      "uri": "scene.bin"
    }
  ],
  "extensionsRequired": [
    "KHR_materials_pbrSpecularGlossiness"
  ],
  "extensionsUsed": [
    "KHR_materials_pbrSpecularGlossiness"
  ],
  "materials": [
    {
      "doubleSided": true,
      "extensions": {
        "KHR_materials_pbrSpecularGlossiness": {
          "diffuseFactor": [
            0.2952780010693077,
            0.29636178392459983,
            0.27914862276540786,
            1.0
          ],
          "glossinessFactor": 0.0,
          "specularFactor": [
            0.0,
            0.0,
            0.0
          ]
        }
      },
      "name": "Scene_-_Root"
    }
  ],
  "meshes": [
    {
      "name": "Import Symbol location <Not Shared> [120299]__0",
      "primitives": [
        {
          "attributes": {
            "NORMAL": 1,
            "POSITION": 0,
            "TEXCOORD_0": 2
          },
          "indices": 3,
          "material": 0,
          "mode": 4
        }
      ]
    },
    {
      "name": "Import Symbol location <Not Shared> [120304]__0",
      "primitives": [
        {
          "attributes": {
            "NORMAL": 5,
            "POSITION": 4,
            "TEXCOORD_0": 6
          },
          "indices": 7,
          "material": 0,
          "mode": 4
        }
      ]
    }
  ],
  "nodes": [
    {
      "children": [
        1
      ],
      "matrix": [
        2.220446049250313e-16,
        2.832769343193999e-16,
        1.0,
        0.0,
        -1.0,
        2.2204460492503126e-16,
        2.2204460492503136e-16,
        0.0,
        -2.220446049250313e-16,
        -1.0,
        2.832769343193999e-16,
        0.0,
        -5.97536563873291e-05,
        -3.0011069774627686,
        5.9753656386662724e-05,
        1.0
      ],
      "name": "Sketchfab_model"
    },
    {
      "children": [
        2
      ],
      "matrix": [
        1.0,
        0.0,
        0.0,
        0.0,
        0.0,
        -1.0,
        0.0,
        0.0,
        0.0,
        0.0,
        -1.0,
        0.0,
        0.0,
        0.0,
        0.0,
        1.0
      ],
      "name": "c19ea47ea1484e19b9ac7c988f32aff4.fbx"
    },
    {
      "children": [
        3,
        5,
        7
      ],
      "name": "RootNode"
    },
    {
      "children": [
        4
      ],
      "matrix": [
        -0.5773502691896257,
        0.5773502691896258,
        -0.5773502691896258,
        0.0,
        -0.40824829046386313,
        0.408248290463863,
        0.8164965809277261,
        0.0,
        0.7071067811865476,
        0.7071067811865476,
        0.0,
        0.0,
        1.9155781269073486,
        -1.828513741493225,
        3.1588642597198486,
        1.0
      ],
      "name": "3D View: {3D}"
    },
    {
      "name": "Object_4"
    },
    {
      "children": [
        6
      ],
      "matrix": [
        1.0,
        0.0,
        0.0,
        0.0,
        0.0,
        1.0,
        0.0,
        0.0,
        0.0,
        0.0,
        1.0,
        0.0,
        0.0,
        0.0,
        2.524687002427445e-13,
        1.0
      ],
      "name": "Import Symbol location <Not Shared> [120299]"
    },
    {
      "mesh": 0,
      "name": "Import Symbol location <Not Shared> [120299]__0"
    },
    {
      "children": [
        8
      ],
      "matrix": [
        1.0,
        0.0,
        0.0,
        0.0,
        0.0,
        1.0,
        0.0,
        0.0,
        0.0,
        0.0,
        1.0,
        0.0,
        0.0,
        0.0,
        2.524687002427445e-13,
        1.0
      ],
      "name": "Import Symbol location <Not Shared> [120304]"
    },
    {
      "mesh": 1,
      "name": "Import Symbol location <Not Shared> [120304]__0"
    }
  ],
  "scene": 0,
  "scenes": [
    {
      "name": "Sketchfab_Scene",
      "nodes": [
        0
      ]
    }
  ]
}
