{
  "accessors": [
    {
      "bufferView": 2,
      "componentType": 5126,
      "count": 3312,
      "max": [
        0.6845790147781372,
        0.10139600187540054,
        0.868582010269165
      ],
      "min": [
        -0.6845790147781372,
        -0.28489699959754944,
        -0.6070619821548462
      ],
      "type": "VEC3"
    },
    {
      "bufferView": 2,
      "byteOffset": 39744,
      "componentType": 5126,
      "count": 3312,
      "max": [
        0.9996899962425232,
        0.9974551796913147,
        1.0
      ],
      "min": [
        -0.9996899962425232,
        -0.9999593496322632,
        -1.0
      ],
      "type": "VEC3"
    },
    {
      "bufferView": 3,
      "componentType": 5126,
      "count": 3312,
      "max": [
        1.0,
        0.7539940476417542,
        0.9533732533454895,
        1.0
      ],
      "min": [
        -0.9999998807907104,
        -0.9999962449073792,
        -0.9440887570381165,
        1.0
      ],
      "type": "VEC4"
    },
    {
      "bufferView": 1,
      "componentType": 5126,
      "count": 3312,
      "max": [
        0.9950000047683716,
        0.9947999715805054
      ],
      "min": [
        0.4851999878883362,
        0.00570000009611249
      ],
      "type": "VEC2"
    },
    {
      "bufferView": 0,
      "componentType": 5125,
      "count": 18168,
      "type": "SCALAR"
    },
    {
      "bufferView": 2,
      "byteOffset": 79488,
      "componentType": 5126,
      "count": 200,
      "max": [
        0.6801649928092957,
        -0.9060680270195007,
        0.8143630027770996
      ],
      "min": [
        -0.6975029706954956,
        -1.0,
        -0.5633050203323364
      ],
      "type": "VEC3"
    },
    {
      "bufferView": 2,
      "byteOffset": 81888,
      "componentType": 5126,
      "count": 200,
      "max": [
        0.8944271802902222,
        0.44722163677215576,
        0.8944271802902222
      ],
      "min": [
        -0.8944271802902222,
        -1.0,
        -0.8944271802902222
      ],
      "type": "VEC3"
    },
    {
      "bufferView": 3,
      "byteOffset": 52992,
      "componentType": 5126,
      "count": 200,
      "max": [
        0.9994235038757324,
        0.8816085457801819,
        0.9877182841300964,
        1.0
      ],
      "min": [
        -0.7919579148292542,
        -0.8852128386497498,
        -0.9339001774787903,
        1.0
      ],
      "type": "VEC4"
    },
    {
      "bufferView": 1,
      "byteOffset": 26496,
      "componentType": 5126,
      "count": 200,
      "max": [
        0.957099974155426,
        0.9932000041007996
      ],
      "min": [
        0.0005000000237487257,
        0.5315999984741211
      ],
      "type": "VEC2"
    },
    {
      "bufferView": 0,
      "byteOffset": 72672,
      "componentType": 5125,
      "count": 936,
      "type": "SCALAR"
    },
    {
      "bufferView": 2,
      "byteOffset": 84288,
      "componentType": 5126,
      "count": 13617,
      "max": [
        0.9963849782943726,
        1.0,
        0.8859000205993652
      ],
      "min": [
        -0.9963849782943726,
        -0.911113977432251,
        -0.885899007320404
      ],
      "type": "VEC3"
    },
    {
      "bufferView": 2,
      "byteOffset": 247692,
      "componentType": 5126,
      "count": 13617,
      "max": [
        0.9999736547470093,
        0.9986417889595032,
        0.9997815489768982
      ],
      "min": [
        -0.9999736547470093,
        -0.9999940395355225,
        -0.9994520545005798
      ],
      "type": "VEC3"
    },
    {
      "bufferView": 3,
      "byteOffset": 56192,
      "componentType": 5126,
      "count": 13617,
      "max": [
        0.9999861717224121,
        0.9988359808921814,
        0.999991774559021,
        1.0
      ],
      "min": [
        -1.0,
        -0.9382632970809937,
        -0.9997304677963257,
        -1.0
      ],
      "type": "VEC4"
    },
    {
      "bufferView": 1,
      "byteOffset": 28096,
      "componentType": 5126,
      "count": 13617,
      "max": [
        0.7978000044822693,
        0.9994999766349792
      ],
      "min": [
        0.0005000000237487257,
        0.0005000000237487257
      ],
      "type": "VEC2"
    },
    {
      "bufferView": 0,
      "byteOffset": 76416,
      "componentType": 5125,
      "count": 77748,
      "type": "SCALAR"
    }
  ],
  "asset": {
    "extras": {
      "author": "Vitor.GomesPT (https://sketchfab.com/Vitor.Gomes1)",
      "license": "CC-BY-4.0 (http://creativecommons.org/licenses/by/4.0/)",
      "source": "https://sketchfab.com/3d-models/besame-chair-hp-022d1ea9c01d48eaaf32e0ca30b44c1e",
      "title": "Besame_Chair_HP"
    },
    "generator": "Sketchfab-12.66.0",
    "version": "2.0"
  },
  "bufferViews": [
    {
      "buffer": 0,
      "byteLength": 387408,
      "name": "floatBufferViews",
      "target": 34963
    },
    {
      "buffer": 0,
      "byteLength": 137032,
      "byteOffset": 387408,
      "byteStride": 8,
      "name": "floatBufferViews",
      "target": 34962
    },
    {
      "buffer": 0,
      "byteLength": 411096,
      "byteOffset": 524440,
      "byteStride": 12,
      "name": "floatBufferViews",
      "target": 34962
    },
    {
      "buffer": 0,
      "byteLength": 274064,
      "byteOffset": 935536,
      "byteStride": 16,
      "name": "floatBufferViews",
      "target": 34962
    }
  ],
  "buffers": [
    {
      "byteLength": 1209600,
      "uri": "scene.bin"
    }
  ],
  "images": [
    {
      "uri": "DefaultMaterial_baseColor.jpeg"
    },
    {
      "uri": "DefaultMaterial_metallicRoughness.png"
    },
    {
      "uri": "DefaultMaterial_normal.png"
    }
  ],
  "materials": [
    {
      "doubleSided": true,
      "name": "DefaultMaterial",
      "normalTexture": {
        "index": 2
      },
      "occlusionTexture": {
        "index": 1
      },
      "pbrMetallicRoughness": {
        "baseColorTexture": {
          "index": 0
        },
        "metallicRoughnessTexture": {
          "index": 1
        }
      }
    }
  ],
  "meshes": [
    {
      "name": "defaultMaterial",
      "primitives": [
        {
          "attributes": {
            "NORMAL": 1,
            "POSITION": 0,
            "TANGENT": 2,
            "TEXCOORD_0": 3
          },
          "indices": 4,
          "material": 0,
          "mode": 4
        }
      ]
    },
    {
      "name": "defaultMaterial",
      "primitives": [
        {
          "attributes": {
            "NORMAL": 6,
            "POSITION": 5,
            "TANGENT": 7,
            "TEXCOORD_0": 8
          },
          "indices": 9,
          "material": 0,
          "mode": 4
        }
      ]
    },
    {
      "name": "defaultMaterial",
      "primitives": [
        {
          "attributes": {
            "NORMAL": 11,
            "POSITION": 10,
            "TANGENT": 12,
            "TEXCOORD_0": 13
          },
          "indices": 14,
          "material": 0,
          "mode": 4
        }
      ]
    }
  ],
  "nodes": [
    {
      "children": [
        1
      ],
      "matrix": [
        1.0,
        0.0,
        0.0,
        0.0,
        0.0,
        2.220446049250313e-16,
        -1.0,
        0.0,
        0.0,
        1.0,
        2.220446049250313e-16,
        0.0,
        0.0,
        0.0,
        0.0,
        1.0
      ],
      "name": "Sketchfab_model"
    },
    {
      "children": [
        2,
        4,
        6
      ],
      "matrix": [
        1.0,
        0.0,
        0.0,
        0.0,
        0.0,
        -4.371139006309477e-08,
        0.999999999999999,
        0.0,
        0.0,
        -0.999999999999999,
        -4.371139006309477e-08,
        0.0,
        0.0,
        0.0,
        0.0,
        1.0
      ],
      "name": "Collada visual scene group"
    },
    {
      "children": [
        3
      ],
      "name": "g"
    },
    {
      "mesh": 0,
      "name": "defaultMaterial"
    },
    {
      "children": [
        5
      ],
      "name": "g"
    },
    {
      "mesh": 1,
      "name": "defaultMaterial"
    },
    {
      "children": [
        7
      ],
      "name": "g"
    },
    {
      "mesh": 2,
      "name": "defaultMaterial"
    }
  ],
  "samplers": [
    {
      "magFilter": 9729,
      "minFilter": 9987,
      "wrapS": 10497,
      "wrapT": 10497
    }
  ],
  "scene": 0,
  "scenes": [
    {
      "name": "Sketchfab_Scene",
      "nodes": [
        0
      ]
    }
  ],
  "textures": [
    {
      "sampler": 0,
      "source": 0
    },
    {
      "sampler": 0,
      "source": 1
    },
    {
      "sampler": 0,
      "source": 2
    }
  ]
}
