{
  "accessors": [
    {
      "bufferView": 2,
      "componentType": 5126,
      "count": 10059,
      "max": [
        0.010936222970485687,
        0.018005382269620895,
        0.00126177619677037
      ],
      "min": [
        -0.010936222970485687,
        0.0,
        -0.01883465051651001
      ],
      "type": "VEC3"
    },
    {
      "bufferView": 2,
      "byteOffset": 120708,
      "componentType": 5126,
      "count": 10059,
      "max": [
        1.0,
        1.0,
        1.0
      ],
      "min": [
        -1.0,
        -1.0,
        -1.0
      ],
      "type": "VEC3"
    },
    {
      "bufferView": 1,
      "componentType": 5126,
      "count": 10059,
      "max": [
        3.4471311569213867,
        3.603128671646118
      ],
      "min": [
        -3.0846493244171143,
        -2.2370688915252686
      ],
      "type": "VEC2"
    },
    {
      "bufferView": 0,
      "componentType": 5125,
      "count": 32238,
      "type": "SCALAR"
    }
  ],
  "asset": {
    "extras": {
      "author": "MH (https://sketchfab.com/MH...)",
      "license": "CC-BY-4.0 (http://creativecommons.org/licenses/by/4.0/)",
      "source": "https://sketchfab.com/3d-models/chair-v1-ee8d9e7c7e3644ab9407c136fc801287",
      "title": "Chair - v1"
    },
    "generator": "Sketchfab-13.74.0",
    "version": "2.0"
  },
  "bufferViews": [
    {
      "buffer": 0,
      "byteLength": 128952,
      "name": "floatBufferViews",
      "target": 34963
    },
    {
      "buffer": 0,
      "byteLength": 80472,
      "byteOffset": 128952,
      "byteStride": 8,
      "name": "floatBufferViews",
      "target": 34962
    },
    {
      "buffer": 0,
      "byteLength": 241416,
      "byteOffset": 209424,
      "byteStride": 12,
      "name": "floatBufferViews",
      "target": 34962
    }
  ],
  "buffers": [
    {
      "byteLength": 450840,
      "uri": "scene.bin"
    }
  ],
  "materials": [
    {
      "name": "01_-_Default",
      "pbrMetallicRoughness": {
        "baseColorFactor": [
          0.141176,
          0.0666667,
          0.0117647,
          1.0
        ],
        "metallicFactor": 0.0,
        "roughnessFactor": 0.450054
      }
    }
  ],
  "meshes": [
    {
      "name": "Object_0",
      "primitives": [
        {
          "attributes": {
            "NORMAL": 1,
            "POSITION": 0,
            "TEXCOORD_0": 2
          },
          "indices": 3,
          "material": 0,
          "mode": 4
        }
      ]
    }
  ],
  "nodes": [
    {
      "children": [
        1
      ],
      "matrix": [
        1.0,
        0.0,
        0.0,
        0.0,
        0.0,
        2.220446049250313e-16,
        -1.0,
        0.0,
        0.0,
        1.0,
        2.220446049250313e-16,
        0.0,
        0.0,
        0.0,
        0.0,
        1.0
      ],
      "name": "Sketchfab_model"
    },
    {
      "children": [
        2
      ],
      "name": "root"
    },
    {
      "children": [
        3
      ],
      "matrix": [
        1.0,
        0.0,
        0.0,
        0.0,
        0.0,
        2.220446049250313e-16,
        1.0,
        0.0,
        0.0,
        -1.0,
        2.220446049250313e-16,
        0.0,
        0.0,
        0.0,
        0.0,
        1.0
      ],
      "name": "GLTF_SceneRootNode"
    },
    {
      "children": [
        4
      ],
      "matrix": [
        30.479999542236328,
        0.0,
        0.0,
        0.0,
        0.0,
        30.479999542236328,
        0.0,
        0.0,
        0.0,
        0.0,
        30.479999542236328,
        0.0,
        2.216169834136963,
        0.0,
        -1.3517742156982422,
        1.0
      ],
      "name": "Chair (100) Chair (100) [324355]_0"
    },
    {
      "mesh": 0,
      "name": "Object_4"
    }
  ],
  "scene": 0,
  "scenes": [
    {
      "name": "Sketchfab_Scene",
      "nodes": [
        0
      ]
    }
  ]
}
