{
  "accessors": [
    {
      "bufferView": 1,
      "componentType": 5126,
      "count": 816,
      "max": [
        1.3105000257492065,
        1.3105000257492065,
        2.052880048751831
      ],
      "min": [
        -1.3105000257492065,
        -1.3105000257492065,
        -0.8865000009536743
      ],
      "type": "VEC3"
    },
    {
      "bufferView": 1,
      "byteOffset": 9792,
      "componentType": 5126,
      "count": 816,
      "max": [
        0.9807791709899902,
        0.9807791709899902,
        1.0
      ],
      "min": [
        -0.9807791709899902,
        -0.9807791709899902,
        -1.0
      ],
      "type": "VEC3"
    },
    {
      "bufferView": 0,
      "componentType": 5125,
      "count": 1290,
      "type": "SCALAR"
    },
    {
      "bufferView": 1,
      "byteOffset": 19584,
      "componentType": 5126,
      "count": 144,
      "max": [
        0.11004000157117844,
        0.11004000157117844,
        -0.8865000009536743
      ],
      "min": [
        -0.11004000157117844,
        -0.11004000157117844,
        -2.6355299949645996
      ],
      "type": "VEC3"
    },
    {
      "bufferView": 1,
      "byteOffset": 21312,
      "componentType": 5126,
      "count": 144,
      "max": [
        0.9807855486869812,
        0.9807855486869812,
        -0.0
      ],
      "min": [
        -0.9807855486869812,
        -0.9807855486869812,
        -1.0
      ],
      "type": "VEC3"
    },
    {
      "bufferView": 0,
      "byteOffset": 5160,
      "componentType": 5125,
      "count": 234,
      "type": "SCALAR"
    }
  ],
  "asset": {
    "extras": {
      "author": "Jiří Kuba (https://sketchfab.com/kuba.jirka)",
      "license": "CC-BY-4.0 (http://creativecommons.org/licenses/by/4.0/)",
      "source": "https://sketchfab.com/3d-models/lowpoly-pin-652c421271bf4a05a97ec80063f04919",
      "title": "Lowpoly pin"
    },
    "generator": "Sketchfab-12.68.0",
    "version": "2.0"
  },
  "bufferViews": [
    {
      "buffer": 0,
      "byteLength": 6096,
      "name": "floatBufferViews",
      "target": 34963
    },
    {
      "buffer": 0,
      "byteLength": 23040,
      "byteOffset": 6096,
      "byteStride": 12,
      "name": "floatBufferViews",
      "target": 34962
    }
  ],
  "buffers": [
    {
      "byteLength": 29136,
      "uri": "scene.bin"
    }
  ],
  "materials": [
    {
      "doubleSided": true,
      "name": "PinMaterial",
      "pbrMetallicRoughness": {
        "baseColorFactor": [
          0.8000000715,
          0.0,
          0.0025751744,
          1.0
        ],
        "metallicFactor": 0.0,
        "roughnessFactor": 0.6
      }
    },
    {
      "doubleSided": true,
      "name": "PinMetalMaterial",
      "pbrMetallicRoughness": {
        "baseColorFactor": [
          0.5277181268,
          0.5277181268,
          0.5277181268,
          1.0
        ],
        "metallicFactor": 0.0,
        "roughnessFactor": 0.6
      }
    }
  ],
  "meshes": [
    {
      "name": "Pin_0",
      "primitives": [
        {
          "attributes": {
            "NORMAL": 1,
            "POSITION": 0
          },
          "indices": 2,
          "material": 0,
          "mode": 4
        }
      ]
    },
    {
      "name": "Pin_1",
      "primitives": [
        {
          "attributes": {
            "NORMAL": 4,
            "POSITION": 3
          },
          "indices": 5,
          "material": 1,
          "mode": 4
        }
      ]
    }
  ],
  "nodes": [
    {
      "children": [
        1
      ],
      "matrix": [
        1.0,
        0.0,
        0.0,
        0.0,
        0.0,
        2.220446049250313e-16,
        -1.0,
        0.0,
        0.0,
        1.0,
        2.220446049250313e-16,
        0.0,
        0.0,
        0.0,
        0.0,
        1.0
      ],
      "name": "Sketchfab_model"
    },
    {
      "children": [
        2
      ],
      "name": "Root"
    },
    {
      "children": [
        3,
        4
      ],
      "name": "Pin"
    },
    {
      "mesh": 0,
      "name": "Pin_0"
    },
    {
      "mesh": 1,
      "name": "Pin_1"
    }
  ],
  "scene": 0,
  "scenes": [
    {
      "name": "Sketchfab_Scene",
      "nodes": [
        0
      ]
    }
  ]
}
